<svg width="32" height="32" viewBox="0 0 32 32" fill="none" xmlns="http://www.w3.org/2000/svg">
<g id="Btn - twitter">
<path id="&#239;&#130;&#153;" d="M25.5156 11.125C26.4531 10.4219 27.2969 9.57812 27.9531 8.59375C27.1094 8.96875 26.125 9.25 25.1406 9.34375C26.1719 8.73438 26.9219 7.79688 27.2969 6.625C26.3594 7.1875 25.2812 7.60938 24.2031 7.84375C23.2656 6.85938 22 6.29688 20.5938 6.29688C17.875 6.29688 15.6719 8.5 15.6719 11.2188C15.6719 11.5938 15.7188 11.9688 15.8125 12.3438C11.7344 12.1094 8.07812 10.1406 5.64062 7.1875C5.21875 7.89062 4.98438 8.73438 4.98438 9.67188C4.98438 11.3594 5.82812 12.8594 7.1875 13.75C6.39062 13.7031 5.59375 13.5156 4.9375 13.1406V13.1875C4.9375 15.5781 6.625 17.5469 8.875 18.0156C8.5 18.1094 8.03125 18.2031 7.60938 18.2031C7.28125 18.2031 7 18.1562 6.67188 18.1094C7.28125 20.0781 9.10938 21.4844 11.2656 21.5312C9.57812 22.8438 7.46875 23.6406 5.17188 23.6406C4.75 23.6406 4.375 23.5938 4 23.5469C6.15625 24.9531 8.73438 25.75 11.5469 25.75C20.5938 25.75 25.5156 18.2969 25.5156 11.7812C25.5156 11.5469 25.5156 11.3594 25.5156 11.125Z" fill="#D0D0D0"/>
</g>
</svg>
